<?xml version="1.0" ?><svg id="Layer_1" style="enable-background:new 0 0 30 30;" version="1.1" viewBox="0 0 30 30" xml:space="preserve" xmlns="http://www.w3.org/2000/svg" xmlns:xlink="http://www.w3.org/1999/xlink"><line style="fill:none;stroke:#000000;stroke-width:2;stroke-linecap:round;stroke-linejoin:round;stroke-miterlimit:10;" x1="10" x2="20" y1="25" y2="25"/><path d="M25,4H5C3.895,4,3,4.895,3,6v14c0,1.105,0.895,2,2,2h20c1.105,0,2-0.895,2-2V6C27,4.895,26.105,4,25,4z M15,21  c-0.552,0-1-0.448-1-1c0-0.552,0.448-1,1-1s1,0.448,1,1C16,20.552,15.552,21,15,21z M25,18H5V6h20V18z"/></svg>